<?xml version="1.0" encoding="utf-8"?>
<!-- Generator: Adobe Illustrator 16.0.0, SVG Export Plug-In . SVG Version: 6.00 Build 0)  -->
<!DOCTYPE svg PUBLIC "-//W3C//DTD SVG 1.1//EN" "http://www.w3.org/Graphics/SVG/1.1/DTD/svg11.dtd">
<svg version="1.1" id="Layer_1" xmlns="http://www.w3.org/2000/svg" xmlns:xlink="http://www.w3.org/1999/xlink" x="0px" y="0px"
	 width="1089.76px" height="800px" viewBox="0 0 1089.76 800" enable-background="new 0 0 1089.76 800" xml:space="preserve">
<circle fill="#FFFFFF" stroke="#000000" stroke-miterlimit="10" cx="473.224" cy="68.21" r="17.482"/>
<circle fill="#FFFFFF" stroke="#000000" stroke-miterlimit="10" cx="473.224" cy="399.643" r="17.482"/>
<path fill="#FFFFFF" stroke="#000000" stroke-miterlimit="10" d="M1032.47,68.209c0-9.655-7.823-17.482-17.479-17.482
	c-9.658,0-17.482,7.827-17.482,17.482c0,9.656,7.824,17.484,17.482,17.484C1024.646,85.693,1032.47,77.865,1032.47,68.209z"/>
<circle fill="#FFFFFF" stroke="#000000" stroke-miterlimit="10" cx="1016.671" cy="614.287" r="17.483"/>
<circle fill="#FFFFFF" stroke="#000000" stroke-miterlimit="10" cx="473.224" cy="678.894" r="17.482"/>
<polyline fill="none" stroke="#000000" stroke-width="3" stroke-miterlimit="10" points="1055.71,360.373 1056.615,596.805 
	1075.701,597.3 1075.701,791.553 8.993,791.553 8.993,10.048 1054.367,8.925 1055.449,291.88 "/>
<line fill="none" stroke="#000000" stroke-miterlimit="10" x1="1055.186" y1="360.943" x2="1077.727" y2="295.311"/>
<path fill="none" stroke="#000000" stroke-miterlimit="10" d="M1055.449,291.88c8.396,0,15.796,1.22,22.311,3.335"/>
<rect x="455.742" y="85.694" fill="none" stroke="#000000" stroke-miterlimit="10" width="34.965" height="296.465"/>
<rect x="662.63" y="203.482" fill="none" stroke="#000000" stroke-miterlimit="10" width="148.234" height="34.966"/>
<rect x="907.214" y="556.72" fill="none" stroke="#000000" stroke-miterlimit="10" width="148.234" height="34.967"/>
<rect x="907.214" y="431.581" fill="none" stroke="#000000" stroke-miterlimit="10" width="148.234" height="34.965"/>
<rect x="174.21" y="544.118" fill="none" stroke="#000000" stroke-miterlimit="10" width="148.234" height="34.965"/>
<g>
	<path d="M1032.47,484.417c-10.79,0-19.53,8.745-19.53,19.53c0,4.383,1.442,8.428,3.881,11.686l12.526,21.7
		c0.073,0.14,0.146,0.279,0.235,0.407l0.027,0.048l0.008-0.004c0.64,0.884,1.669,1.461,2.863,1.461c1.076,0,2.017-0.49,2.662-1.245
		l0.033,0.018l0.123-0.214c0.184-0.247,0.346-0.51,0.463-0.801l12.272-21.259c2.487-3.279,3.966-7.363,3.966-11.797
		C1052.001,493.162,1043.261,484.417,1032.47,484.417z M1032.277,513.85c-5.317,0-9.623-4.309-9.623-9.623
		c0-5.313,4.306-9.623,9.623-9.623c5.316,0,9.623,4.31,9.623,9.623S1037.595,513.85,1032.277,513.85z"/>
</g>
<g>
	<path d="M736.747,246.474c-10.79,0-19.53,8.745-19.53,19.53c0,4.383,1.442,8.428,3.88,11.686l12.527,21.7
		c0.073,0.141,0.146,0.279,0.235,0.407l0.026,0.048l0.008-0.004c0.641,0.884,1.669,1.461,2.864,1.461
		c1.076,0,2.016-0.489,2.662-1.245l0.033,0.019l0.123-0.214c0.184-0.247,0.346-0.511,0.463-0.801l12.271-21.259
		c2.487-3.279,3.967-7.363,3.967-11.797C756.278,255.219,747.538,246.474,736.747,246.474z M736.555,275.906
		c-5.316,0-9.623-4.309-9.623-9.623s4.307-9.623,9.623-9.623c5.317,0,9.623,4.309,9.623,9.623S741.872,275.906,736.555,275.906z"/>
</g>
<g>
	<path d="M248.328,484.416c-10.79,0-19.53,8.746-19.53,19.531c0,4.383,1.442,8.428,3.88,11.686l12.527,21.699
		c0.073,0.141,0.146,0.279,0.235,0.408l0.027,0.047l0.008-0.004c0.64,0.885,1.669,1.461,2.864,1.461c1.076,0,2.016-0.49,2.662-1.244
		l0.033,0.018l0.123-0.215c0.184-0.246,0.346-0.51,0.463-0.801l12.272-21.258c2.487-3.279,3.966-7.363,3.966-11.797
		C267.858,493.162,259.119,484.416,248.328,484.416z M248.135,513.85c-5.317,0-9.623-4.309-9.623-9.623
		c0-5.313,4.306-9.623,9.623-9.623c5.317,0,9.623,4.31,9.623,9.623C257.758,509.539,253.453,513.85,248.135,513.85z"/>
</g>
<g>
	<path d="M248.328,582.584c-10.79,0-19.53,8.746-19.53,19.531c0,4.383,1.442,8.428,3.88,11.686l12.527,21.699
		c0.073,0.141,0.146,0.279,0.235,0.408l0.027,0.047l0.008-0.004c0.64,0.885,1.669,1.461,2.864,1.461c1.076,0,2.016-0.49,2.662-1.244
		l0.033,0.018l0.123-0.215c0.184-0.246,0.346-0.51,0.463-0.801l12.272-21.258c2.487-3.279,3.966-7.363,3.966-11.797
		C267.858,591.33,259.119,582.584,248.328,582.584z M248.135,612.018c-5.317,0-9.623-4.309-9.623-9.623
		c0-5.313,4.306-9.622,9.623-9.622c5.317,0,9.623,4.309,9.623,9.622C257.758,607.707,253.453,612.018,248.135,612.018z"/>
</g>
<g>
	<path d="M736.747,138.661c-10.79,0-19.53,8.746-19.53,19.531c0,4.383,1.442,8.428,3.88,11.686l12.527,21.699
		c0.073,0.141,0.146,0.279,0.235,0.408l0.026,0.047l0.008-0.004c0.641,0.885,1.669,1.461,2.864,1.461
		c1.076,0,2.016-0.49,2.662-1.244l0.033,0.018l0.123-0.215c0.184-0.246,0.346-0.51,0.463-0.801l12.271-21.258
		c2.487-3.279,3.967-7.363,3.967-11.797C756.278,147.407,747.538,138.661,736.747,138.661z M736.555,168.095
		c-5.316,0-9.623-4.309-9.623-9.623s4.307-9.623,9.623-9.623c5.317,0,9.623,4.309,9.623,9.623
		C746.178,163.784,741.872,168.095,736.555,168.095z"/>
</g>
<g>
	<path d="M525.349,286.474c-10.79,0-19.529,8.746-19.529,19.531c0,4.383,1.441,8.428,3.88,11.687l12.526,21.698
		c0.073,0.142,0.146,0.279,0.235,0.408l0.027,0.047l0.008-0.004c0.64,0.885,1.669,1.461,2.864,1.461
		c1.075,0,2.016-0.489,2.661-1.244l0.033,0.019l0.123-0.215c0.185-0.246,0.347-0.511,0.463-0.802l12.272-21.258
		c2.487-3.278,3.966-7.362,3.966-11.797C544.88,295.22,536.14,286.474,525.349,286.474z M525.156,315.907
		c-5.317,0-9.623-4.31-9.623-9.623c0-5.314,4.306-9.623,9.623-9.623c5.316,0,9.623,4.309,9.623,9.623
		C534.779,311.597,530.474,315.907,525.156,315.907z"/>
</g>
<g>
	<path d="M525.349,123.313c-10.79,0-19.529,8.746-19.529,19.531c0,4.383,1.441,8.428,3.88,11.687l12.526,21.699
		c0.073,0.141,0.146,0.279,0.235,0.408l0.027,0.047l0.008-0.004c0.64,0.885,1.669,1.461,2.864,1.461c1.075,0,2.016-0.49,2.661-1.244
		l0.033,0.018l0.123-0.215c0.185-0.246,0.347-0.51,0.463-0.801l12.272-21.258c2.487-3.279,3.966-7.363,3.966-11.797
		C544.88,132.06,536.14,123.313,525.349,123.313z M525.156,152.747c-5.317,0-9.623-4.309-9.623-9.623s4.306-9.623,9.623-9.623
		c5.316,0,9.623,4.309,9.623,9.623C534.779,148.437,530.474,152.747,525.156,152.747z"/>
</g>
<g>
	<path d="M590.251,35.474c-10.79,0-19.53,8.746-19.53,19.531c0,4.383,1.442,8.428,3.88,11.686l12.527,21.699
		c0.073,0.141,0.146,0.279,0.235,0.408l0.026,0.047l0.008-0.004c0.641,0.885,1.669,1.461,2.864,1.461
		c1.076,0,2.017-0.49,2.662-1.244l0.033,0.018l0.123-0.215c0.184-0.246,0.346-0.51,0.463-0.801l12.271-21.258
		c2.487-3.279,3.967-7.363,3.967-11.797C609.782,44.22,601.042,35.474,590.251,35.474z M590.059,64.907
		c-5.316,0-9.623-4.309-9.623-9.623c0-5.314,4.307-9.623,9.623-9.623c5.317,0,9.623,4.309,9.623,9.623
		C599.682,60.597,595.376,64.907,590.059,64.907z"/>
</g>
<g>
	<path d="M417.251,193.551c-10.79,0-19.53,8.746-19.53,19.531c0,4.383,1.442,8.428,3.88,11.686l12.527,21.699
		c0.073,0.141,0.146,0.279,0.235,0.408l0.027,0.047l0.008-0.004c0.64,0.885,1.669,1.461,2.864,1.461c1.076,0,2.016-0.49,2.662-1.244
		l0.033,0.018l0.123-0.215c0.184-0.246,0.346-0.51,0.463-0.801l12.272-21.258c2.486-3.279,3.966-7.363,3.966-11.797
		C436.782,202.297,428.042,193.551,417.251,193.551z M417.059,222.984c-5.317,0-9.623-4.309-9.623-9.623s4.306-9.623,9.623-9.623
		s9.623,4.309,9.623,9.623C426.682,218.674,422.376,222.984,417.059,222.984z"/>
</g>
<g>
	<path d="M41.251,23.313c-10.79,0-19.53,8.746-19.53,19.531c0,4.383,1.442,8.428,3.88,11.687l12.527,21.699
		c0.073,0.141,0.146,0.279,0.235,0.408l0.027,0.047l0.008-0.004c0.64,0.885,1.669,1.461,2.864,1.461c1.076,0,2.016-0.49,2.662-1.244
		l0.033,0.018l0.123-0.215c0.184-0.246,0.346-0.51,0.463-0.801l12.272-21.258c2.487-3.279,3.966-7.363,3.966-11.797
		C60.782,32.061,52.042,23.313,41.251,23.313z M41.059,52.748c-5.317,0-9.623-4.309-9.623-9.623s4.306-9.623,9.623-9.623
		s9.623,4.309,9.623,9.623C50.682,48.438,46.376,52.748,41.059,52.748z"/>
</g>
<g>
	<path d="M242.251,23.313c-10.79,0-19.53,8.746-19.53,19.531c0,4.383,1.442,8.428,3.88,11.687l12.527,21.699
		c0.073,0.141,0.146,0.279,0.235,0.408l0.027,0.047l0.008-0.004c0.64,0.885,1.669,1.461,2.864,1.461c1.076,0,2.016-0.49,2.662-1.244
		l0.033,0.018l0.123-0.215c0.184-0.246,0.346-0.51,0.463-0.801l12.272-21.258c2.487-3.279,3.966-7.363,3.966-11.797
		C261.782,32.06,253.042,23.313,242.251,23.313z M242.059,52.748c-5.317,0-9.623-4.309-9.623-9.623s4.306-9.623,9.623-9.623
		s9.623,4.309,9.623,9.623C251.682,48.437,247.376,52.748,242.059,52.748z"/>
</g>
<g>
	<path d="M39.532,153.316c-10.79,0-19.53,8.746-19.53,19.531c0,4.383,1.442,8.428,3.88,11.686l12.527,21.699
		c0.073,0.141,0.146,0.279,0.235,0.408l0.027,0.047l0.008-0.004c0.64,0.885,1.669,1.461,2.864,1.461c1.076,0,2.016-0.49,2.662-1.244
		l0.033,0.018l0.123-0.215c0.184-0.246,0.346-0.51,0.463-0.801l12.272-21.258c2.487-3.279,3.966-7.363,3.966-11.797
		C59.063,162.062,50.323,153.316,39.532,153.316z M39.34,182.75c-5.317,0-9.623-4.309-9.623-9.623s4.306-9.623,9.623-9.623
		c5.317,0,9.623,4.309,9.623,9.623C48.963,178.439,44.657,182.75,39.34,182.75z"/>
</g>
<g>
	<path d="M39.532,326.061c-10.79,0-19.53,8.746-19.53,19.531c0,4.383,1.442,8.428,3.88,11.687l12.527,21.698
		c0.073,0.142,0.146,0.279,0.235,0.408l0.027,0.047l0.008-0.004c0.64,0.886,1.669,1.461,2.864,1.461
		c1.076,0,2.016-0.489,2.662-1.244l0.033,0.019l0.123-0.215c0.184-0.246,0.346-0.51,0.463-0.801l12.272-21.259
		c2.487-3.278,3.966-7.362,3.966-11.797C59.063,334.807,50.323,326.061,39.532,326.061z M39.34,355.495
		c-5.317,0-9.623-4.31-9.623-9.623c0-5.314,4.306-9.623,9.623-9.623c5.317,0,9.623,4.309,9.623,9.623
		C48.963,351.184,44.657,355.495,39.34,355.495z"/>
</g>
<g>
	<path d="M39.532,498.807c-10.79,0-19.53,8.746-19.53,19.531c0,4.383,1.442,8.428,3.88,11.686l12.527,21.698
		c0.073,0.142,0.146,0.279,0.235,0.408l0.027,0.047l0.008-0.004c0.64,0.885,1.669,1.461,2.864,1.461c1.076,0,2.016-0.49,2.662-1.244
		l0.033,0.019l0.123-0.215c0.184-0.246,0.346-0.511,0.463-0.802l12.272-21.258c2.487-3.278,3.966-7.362,3.966-11.796
		C59.063,507.553,50.323,498.807,39.532,498.807z M39.34,528.239c-5.317,0-9.623-4.309-9.623-9.622c0-5.314,4.306-9.623,9.623-9.623
		c5.317,0,9.623,4.309,9.623,9.623C48.963,523.93,44.657,528.239,39.34,528.239z"/>
</g>
<g>
	<path d="M39.532,671.552c-10.79,0-19.53,8.746-19.53,19.531c0,4.383,1.442,8.428,3.88,11.685l12.527,21.699
		c0.073,0.142,0.146,0.279,0.235,0.408l0.027,0.047l0.008-0.004c0.64,0.885,1.669,1.461,2.864,1.461c1.076,0,2.016-0.49,2.662-1.244
		l0.033,0.019l0.123-0.216c0.184-0.245,0.346-0.51,0.463-0.801l12.272-21.258c2.487-3.278,3.966-7.362,3.966-11.796
		C59.063,680.298,50.323,671.552,39.532,671.552z M39.34,700.984c-5.317,0-9.623-4.309-9.623-9.622c0-5.314,4.306-9.623,9.623-9.623
		c5.317,0,9.623,4.309,9.623,9.623C48.963,696.675,44.657,700.984,39.34,700.984z"/>
</g>
<g>
	<path d="M248.327,727.699c-10.79,0-19.53,8.746-19.53,19.531c0,4.383,1.442,8.428,3.88,11.685l12.527,21.699
		c0.073,0.141,0.146,0.278,0.235,0.407l0.027,0.048l0.008-0.005c0.64,0.886,1.669,1.462,2.864,1.462c1.076,0,2.016-0.49,2.662-1.244
		l0.033,0.018l0.123-0.215c0.184-0.246,0.346-0.51,0.463-0.801l12.272-21.259c2.487-3.277,3.966-7.361,3.966-11.796
		C267.858,736.445,259.118,727.699,248.327,727.699z M248.135,757.132c-5.317,0-9.623-4.308-9.623-9.622
		c0-5.313,4.306-9.623,9.623-9.623c5.317,0,9.623,4.31,9.623,9.623C257.758,752.822,253.452,757.132,248.135,757.132z"/>
</g>
<g>
	<path d="M477.113,727.699c-10.79,0-19.53,8.746-19.53,19.531c0,4.383,1.442,8.428,3.88,11.685l12.527,21.699
		c0.072,0.141,0.146,0.278,0.234,0.407l0.027,0.048l0.008-0.005c0.641,0.886,1.669,1.462,2.864,1.462
		c1.076,0,2.016-0.49,2.662-1.244l0.033,0.018l0.123-0.215c0.184-0.246,0.346-0.51,0.463-0.801l12.271-21.259
		c2.487-3.277,3.966-7.361,3.966-11.796C496.645,736.445,487.904,727.699,477.113,727.699z M476.921,757.132
		c-5.317,0-9.623-4.308-9.623-9.622c0-5.313,4.306-9.623,9.623-9.623s9.623,4.31,9.623,9.623
		C486.544,752.822,482.238,757.132,476.921,757.132z"/>
</g>
<g>
	<path d="M705.899,727.699c-10.79,0-19.53,8.746-19.53,19.531c0,4.383,1.441,8.428,3.88,11.685l12.527,21.699
		c0.072,0.141,0.146,0.278,0.234,0.407l0.027,0.048l0.008-0.005c0.64,0.886,1.669,1.462,2.864,1.462c1.076,0,2.016-0.49,2.662-1.244
		l0.032,0.018l0.123-0.215c0.185-0.246,0.347-0.51,0.464-0.801l12.271-21.259c2.487-3.277,3.966-7.361,3.966-11.796
		C725.431,736.445,716.69,727.699,705.899,727.699z M705.707,757.132c-5.317,0-9.623-4.308-9.623-9.622
		c0-5.313,4.306-9.623,9.623-9.623c5.316,0,9.623,4.31,9.623,9.623C715.33,752.822,711.024,757.132,705.707,757.132z"/>
</g>
<g>
	<path d="M934.686,727.699c-10.789,0-19.529,8.746-19.529,19.531c0,4.383,1.441,8.428,3.88,11.685l12.526,21.699
		c0.073,0.141,0.146,0.278,0.235,0.407l0.027,0.048l0.008-0.005c0.64,0.886,1.669,1.462,2.864,1.462c1.076,0,2.016-0.49,2.662-1.244
		l0.032,0.018l0.123-0.215c0.185-0.246,0.347-0.51,0.463-0.801l12.272-21.259c2.486-3.277,3.966-7.361,3.966-11.796
		C954.217,736.445,945.477,727.699,934.686,727.699z M934.493,757.132c-5.317,0-9.623-4.308-9.623-9.622
		c0-5.313,4.306-9.623,9.623-9.623c5.316,0,9.623,4.31,9.623,9.623C944.116,752.822,939.811,757.132,934.493,757.132z"/>
</g>
</svg>
